<svg xmlns="http://www.w3.org/2000/svg" xmlns:xlink="http://www.w3.org/1999/xlink" preserveAspectRatio="xMidYMid" width="33" height="40" viewBox="0 0 33 40">
  <defs>
    <style>
      .cls-1 {
        fill: #c0a161;
        stroke: #fff;
        stroke-linejoin: round;
        stroke-width: 2px;
        fill-rule: evenodd;
      }
    </style>
  </defs>
  <path d="M17.508,5.186 C10.648,5.186 5.062,10.749 5.062,17.579 C5.062,18.371 5.138,19.156 5.290,19.934 C5.290,19.956 5.297,19.971 5.297,19.987 C5.305,20.024 5.320,20.137 5.365,20.311 C5.365,20.319 5.365,20.319 5.365,20.326 C5.562,21.171 5.843,22.001 6.207,22.786 C6.214,22.794 6.214,22.809 6.222,22.817 C7.639,26.160 10.747,31.262 17.508,36.824 C24.269,31.262 27.377,26.160 28.794,22.817 C28.802,22.809 28.802,22.794 28.809,22.786 C29.181,21.994 29.461,21.171 29.651,20.326 C29.651,20.319 29.651,20.319 29.651,20.311 C29.689,20.137 29.711,20.024 29.719,19.987 C29.719,19.971 29.727,19.956 29.727,19.941 C29.878,19.171 29.954,18.379 29.954,17.579 C29.954,10.749 24.368,5.186 17.508,5.186 ZM17.510,12.153 C14.481,12.153 12.011,14.623 12.011,17.652 C12.011,20.682 14.475,23.152 17.510,23.152 C20.545,23.152 23.009,20.682 23.009,17.652 C23.009,14.623 20.539,12.153 17.510,12.153 Z" class="cls-1"/>
</svg>
